<?xml version="1.0" standalone="no"?>
<!DOCTYPE svg PUBLIC "-//W3C//DTD SVG 20010904//EN"
 "http://www.w3.org/TR/2001/REC-SVG-20010904/DTD/svg10.dtd">
<svg version="1.0" xmlns="http://www.w3.org/2000/svg"
 width="1024.000000pt" height="585.000000pt" viewBox="0 0 1024.000000 585.000000"
 preserveAspectRatio="xMidYMid meet">

<g transform="translate(0.000000,585.000000) scale(0.100000,-0.100000)"
fill="#000000" stroke="none">
<path d="M5010 5629 c-36 -15 -65 -45 -85 -88 l-17 -38 -80 1 c-78 1 -80 1
-110 -33 -27 -30 -30 -39 -26 -81 3 -26 14 -66 26 -88 24 -47 19 -52 -56 -52
-94 -1 -419 -49 -652 -96 -248 -51 -770 -196 -842 -235 -17 -9 -18 -70 -18
-1222 0 -740 4 -1255 10 -1322 36 -392 165 -697 423 -1005 122 -146 188 -211
350 -343 299 -246 639 -448 1068 -636 l96 -42 149 67 c398 180 666 338 974
578 385 299 683 738 769 1135 46 212 46 198 46 1526 l0 1260 -145 48 c-447
150 -939 251 -1384 287 -71 5 -131 12 -134 15 -2 2 6 21 18 42 15 24 23 55 24
85 1 41 -4 52 -32 80 -31 32 -35 33 -110 32 l-78 -1 -27 48 c-40 72 -100 102
-157 78z m89 -55 c17 -14 38 -47 48 -76 l18 -50 40 7 c83 15 155 14 170 -2 19
-18 19 -18 -5 -82 -18 -50 -63 -125 -81 -137 -5 -3 12 -34 36 -70 39 -57 45
-72 45 -118 0 -65 -25 -97 -63 -78 -12 6 -40 13 -62 17 -22 3 -48 8 -57 11
-13 4 -21 -3 -28 -23 -28 -77 -69 -123 -110 -123 -35 0 -84 54 -101 111 -11
34 -16 39 -33 34 -12 -4 -47 -9 -79 -12 -51 -5 -61 -3 -83 18 -15 14 -24 33
-24 53 0 32 46 122 74 145 23 19 20 27 -18 75 -64 77 -74 141 -28 176 27 22
69 23 153 4 23 -5 27 -2 37 35 15 48 71 111 100 111 11 0 34 -12 51 -26z m556
-450 c384 -45 838 -144 1171 -256 l99 -33 3 -1185 c3 -1272 1 -1316 -49 -1512
-130 -514 -526 -979 -1149 -1351 -137 -82 -492 -261 -588 -297 l-53 -20 -72
31 c-77 33 -356 171 -422 209 -338 191 -564 357 -785 579 -256 257 -413 512
-486 786 -62 235 -57 125 -61 1507 l-4 1256 23 7 c13 4 64 19 113 35 124 39
365 105 455 125 41 9 89 21 105 26 104 29 618 109 704 109 l49 0 -13 -42 c-12
-42 -13 -43 -66 -49 -412 -48 -777 -122 -1134 -231 l-140 -43 -3 -1140 c-2
-728 1 -1182 8 -1255 29 -323 155 -615 384 -887 267 -318 625 -579 1144 -834
90 -44 175 -82 190 -85 18 -4 53 6 107 31 646 294 1104 641 1375 1045 141 210
240 471 264 695 3 28 8 584 12 1236 l6 1186 -44 16 c-24 8 -88 29 -143 45
-347 104 -675 171 -1015 207 -238 26 -227 23 -233 48 -3 12 -9 32 -12 45 -7
23 -7 23 61 17 38 -3 128 -13 199 -21z m-1160 -1164 c216 -25 468 -115 568
-204 l37 -33 -2 -731 -3 -731 -50 34 c-142 98 -417 162 -802 187 l-183 12 0
732 0 733 23 4 c45 9 325 7 412 -3z m1679 4 c14 -6 16 -80 16 -739 l0 -732
-122 -7 c-439 -24 -699 -81 -856 -186 l-57 -39 -3 732 -3 732 37 32 c44 39
165 102 261 137 66 23 238 60 323 69 61 7 388 7 404 1z m-2164 -824 l0 -700
73 0 c116 0 364 -19 472 -36 113 -18 287 -58 313 -73 11 -7 -147 -10 -485 -11
l-503 0 -2 478 c-2 262 -3 531 -3 597 0 271 -4 335 -20 335 -13 0 -15 -87 -15
-725 l0 -725 558 0 c553 0 557 0 570 -21 20 -31 90 -59 152 -59 61 0 152 36
163 64 6 14 60 16 567 16 l560 0 0 725 c0 718 0 725 -20 725 -20 0 -20 -7 -20
-705 l0 -705 -502 0 c-339 1 -497 4 -486 11 25 14 198 55 308 73 106 17 352
36 473 36 l77 0 0 700 c0 385 2 700 5 700 3 0 24 -13 47 -30 37 -27 49 -30
115 -30 l73 0 2 -715 c1 -393 3 -745 3 -782 l0 -68 -577 -3 -578 -2 -46 -30
c-95 -60 -227 -61 -318 -2 l-41 27 -580 5 -580 5 -3 783 -2 782 73 0 c64 0 79
4 117 29 25 16 48 30 53 30 4 1 7 -314 7 -699z m397 -1652 c33 -36 43 -64 37
-96 -3 -17 -2 -38 3 -47 8 -13 10 -10 10 15 0 30 30 82 48 84 6 1 11 -22 13
-51 2 -42 -1 -56 -18 -73 l-21 -21 20 -32 21 -32 0 40 c0 39 22 85 40 85 5 0
14 -18 21 -39 10 -35 9 -44 -8 -73 -18 -30 -18 -36 -5 -56 21 -32 32 -27 32
13 0 35 18 85 31 85 4 0 14 -18 23 -40 16 -40 14 -82 -6 -106 -6 -8 2 -19 25
-33 39 -24 55 -27 39 -8 -19 22 -25 90 -10 110 13 17 15 17 38 -8 20 -21 25
-37 26 -82 0 -42 5 -59 19 -69 22 -16 3 -19 -25 -4 -15 8 -24 5 -44 -15 -19
-19 -35 -25 -68 -24 -24 0 -51 4 -62 8 -17 6 -15 10 14 34 19 17 44 27 63 27
l32 1 -35 19 c-32 17 -37 17 -53 2 -9 -8 -30 -15 -46 -15 -33 0 -91 21 -91 34
0 13 55 39 82 39 22 0 22 0 3 20 -18 17 -25 18 -57 8 -31 -9 -41 -8 -69 8 -18
11 -34 24 -36 30 -5 16 45 35 74 28 23 -6 24 -5 15 12 -8 15 -22 19 -61 19
-42 0 -55 5 -78 27 -15 15 -23 31 -19 35 4 4 30 8 57 7 l50 0 -31 31 c-25 25
-30 39 -30 78 0 53 7 57 37 25z m1501 -29 c-4 -39 -12 -58 -35 -81 l-30 -30
-7 42 c-9 55 25 115 68 119 5 1 6 -22 4 -50z m-103 -49 c8 -16 15 -40 15 -54
0 -25 0 -25 36 -10 35 15 104 11 104 -6 0 -5 -14 -20 -32 -35 -27 -23 -39 -26
-72 -22 -29 4 -46 1 -58 -10 -10 -9 -18 -11 -18 -5 0 6 5 14 10 17 6 4 3 16
-10 32 -25 32 -29 123 -5 123 8 0 21 -13 30 -30z m-62 -79 c9 -16 17 -40 17
-54 0 -22 4 -25 33 -22 41 4 99 -13 94 -28 -2 -7 -20 -21 -40 -32 -31 -17 -41
-18 -68 -8 -26 10 -35 9 -57 -5 l-26 -17 38 -6 c20 -3 45 -14 54 -23 16 -16
16 -18 -3 -29 -41 -25 -69 -27 -107 -8 -29 14 -41 15 -57 6 -20 -10 -20 -11
12 -23 19 -7 42 -21 53 -33 16 -17 16 -22 4 -29 -8 -6 -36 -10 -61 -10 -36 0
-51 5 -69 25 -17 19 -27 22 -41 15 -29 -16 -47 -11 -24 6 16 12 19 24 17 67
-2 43 1 57 21 81 35 43 50 27 45 -45 -2 -33 -2 -59 2 -59 3 0 15 7 26 15 19
13 20 19 11 58 -8 36 -6 50 8 81 16 34 19 36 34 21 10 -10 16 -33 16 -65 0
-47 0 -48 20 -32 11 9 22 18 24 19 2 1 -5 22 -14 47 -14 37 -15 50 -5 80 14
44 21 45 43 7z m-723 -234 c14 -7 34 -29 45 -50 l20 -37 166 0 c130 0 169 -3
178 -14 9 -11 8 -18 -4 -30 -9 -9 -21 -16 -26 -16 -5 0 -9 -20 -9 -43 0 -24
-3 -46 -6 -49 -11 -12 -44 5 -44 23 0 11 -7 19 -15 19 -8 0 -15 -9 -15 -20 0
-13 -7 -20 -20 -20 -17 0 -20 7 -20 45 l0 45 -59 0 c-32 0 -72 3 -89 6 -28 6
-32 3 -51 -34 -49 -96 -174 -94 -222 4 -28 58 -20 105 26 151 27 27 40 33 77
33 23 0 54 -6 68 -13z"/>
<path d="M5014 5553 c-17 -18 -53 -90 -54 -109 0 -5 20 -20 45 -32 l45 -22 40
21 c22 12 42 25 45 29 6 10 -30 85 -53 113 -19 22 -46 22 -68 0z"/>
<path d="M4778 5439 c-35 -20 -18 -97 34 -158 31 -37 37 -37 71 -11 20 16 26
32 32 80 4 33 7 63 7 67 -1 8 -81 30 -112 32 -8 0 -23 -4 -32 -10z"/>
<path d="M5241 5439 c-25 -5 -49 -13 -54 -18 -5 -5 -6 -34 -2 -64 6 -44 14
-61 40 -87 l32 -31 36 43 c20 24 40 56 46 70 9 23 7 29 -15 42 -13 9 -24 25
-24 36 0 11 -3 20 -7 19 -5 -1 -28 -5 -52 -10z"/>
<path d="M4946 5403 c-9 -9 -7 -73 2 -73 4 1 20 11 35 24 22 18 25 25 15 33
-19 15 -45 23 -52 16z"/>
<path d="M5117 5394 c-40 -22 -38 -26 36 -62 9 -5 9 49 -1 65 -5 8 -14 7 -35
-3z"/>
<path d="M5010 5339 c-68 -41 -80 -58 -80 -115 0 -49 3 -54 38 -83 73 -57 84
-59 147 -17 l55 36 0 63 0 63 -56 37 c-31 20 -60 37 -63 37 -3 0 -22 -10 -41
-21z m80 -79 c24 -24 25 -48 4 -78 -33 -48 -117 -8 -99 47 16 51 61 65 95 31z"/>
<path d="M4886 5237 c-16 -12 -16 -14 3 -31 21 -19 21 -19 21 12 0 36 0 36
-24 19z"/>
<path d="M5200 5218 c0 -30 1 -31 15 -12 18 24 18 31 0 38 -11 4 -15 -2 -15
-26z"/>
<path d="M4818 5173 c-44 -49 -58 -76 -58 -115 0 -32 4 -40 26 -48 26 -10 77
-5 120 11 20 7 21 11 12 66 -7 39 -19 67 -36 86 -14 15 -29 27 -32 27 -3 0
-18 -12 -32 -27z"/>
<path d="M5218 5173 c-20 -21 -28 -43 -33 -89 -6 -58 -6 -62 17 -67 42 -12 75
-7 93 13 10 11 26 20 37 20 22 0 22 1 4 45 -19 45 -65 105 -80 105 -7 0 -24
-12 -38 -27z"/>
<path d="M4944 5084 c4 -21 9 -40 11 -42 2 -2 17 4 35 13 18 9 30 18 28 19 -1
1 -21 13 -42 26 l-39 23 7 -39z"/>
<path d="M5123 5099 c-40 -25 -41 -32 -6 -48 33 -15 45 -4 41 37 l-3 31 -32
-20z"/>
<path d="M5005 5032 c-22 -8 -42 -17 -44 -19 -8 -5 32 -96 50 -114 31 -31 65
-24 94 19 13 20 27 51 30 67 6 28 3 31 -37 48 -24 9 -45 17 -48 16 -3 -1 -23
-8 -45 -17z"/>
<path d="M4923 1060 c-46 -18 -57 -89 -22 -134 38 -49 119 -28 142 36 11 32
-14 79 -49 94 -38 16 -41 16 -71 4z"/>
</g>
</svg>
